<svg xmlns="http://www.w3.org/2000/svg" viewBox="0 0 1024 1024"><path fill="currentColor" d="M384 870.4a25.6 25.6 0 0 1 3.474286 50.980571l-3.474286 0.219429h-256a25.6 25.6 0 0 1-3.474286-50.980571L128 870.4h256zM880.493714 144.932571l-0.877714 3.584-46.372571 146.870858 12.946285 6.948571a143.835429 143.835429 0 0 1 75.227429 119.405714l0.182857 7.936-1.060571 303.579429c0 63.561143-51.017143 115.2-114.102858 115.2-60.964571 0-110.628571-48.128-113.956571-108.653714l-0.182857-6.546286-0.036572-35.949714-51.309714-56.685715-26.770286 29.805715v101.851428a25.6 25.6 0 0 1-3.986285 13.750857l-2.194286 2.925715-106.422857 123.757714a25.6 25.6 0 0 1-41.252572-30.025143l2.450286-3.401143 100.205714-116.48v-102.180571a25.6 25.6 0 0 1 4.278858-14.153143l2.304-2.925714 36.864-41.069715-35.401143-39.131428a25.6 25.6 0 0 1-6.326857-13.421715l-0.292572-3.766857v-111.506285a25.6 25.6 0 0 1 50.980572-3.474286l0.219428 3.474286v101.595428l121.270857 134.070857a25.6 25.6 0 0 1 6.326857 13.385143l0.292572 3.766857v45.787429c0 35.437714 28.233143 64 62.902857 64 32.877714 0 59.977143-25.636571 62.72-58.514286l0.219429-5.558857 1.097142-303.652571a92.854857 92.854857 0 0 0-42.678857-78.665143l-5.851428-3.437715-31.561143-16.969142a25.6 25.6 0 0 1-13.165714-26.331429l0.877714-3.913143 34.56-109.641143-49.225143 24.576-6.912 2.267429-31.890286 5.851428-30.646857 6.034286c-10.020571 2.011429-19.821714 4.022857-29.44 6.144l-28.269714 6.326857c-203.227429 47.286857-315.904 112.896-413.622857 262.619429a25.6 25.6 0 0 1-42.898286-27.977143c108.946286-166.838857 234.313143-237.348571 458.349714-287.597714l29.769143-6.436572 30.939429-6.253714 15.945143-3.072 29.110857-5.412571 99.949714-49.737143a25.6 25.6 0 0 1 36.717714 27.062857zM457.142857 724.114286a25.6 25.6 0 0 1 3.474286 50.980571l-3.474286 0.219429h-256a25.6 25.6 0 0 1-3.474286-50.980572L201.142857 724.114286h256z m-109.714286-146.285715a25.6 25.6 0 0 1 3.474286 50.980572L347.428571 629.028571h-256a25.6 25.6 0 0 1-3.474285-50.980571L91.428571 577.828571h256zM768 402.285714a36.571429 36.571429 0 1 1 0 73.142857 36.571429 36.571429 0 0 1 0-73.142857z"/></svg>